<svg xmlns="http://www.w3.org/2000/svg" version="1.1" xmlns:xlink="http://www.w3.org/1999/xlink" xmlns:svgjs="http://svgjs.com/svgjs" width="512" height="512" x="0" y="0" viewBox="0 0 512 512" xml:space="preserve" class=""><g><g data-name="Layer 2"><g data-name="folded badge"><path d="M304.33 312.71a74.51 74.51 0 1 1-62.49-129.86v-32.48a106.62 106.62 0 1 0 119.79 119.79h-32.48a74.88 74.88 0 0 1-24.82 42.55z" fill="#00baff" data-original="#000000" class=""></path><path d="M304.34 241.84h38.31l-72.49-72.49v38.31a34.21 34.21 0 0 0 34.18 34.18zM209.74 256A46.16 46.16 0 0 0 300 269.86 62.41 62.41 0 0 1 242.14 212a46.15 46.15 0 0 0-32.4 44z" fill="#00baff" data-original="#000000" class=""></path><path d="M256 0C114.62 0 0 114.62 0 256s114.62 256 256 256 256-114.62 256-256S397.38 0 256 0zm0 391c-74.44 0-135-60.56-135-135s60.56-135 135-135a14 14 0 0 1 10 4.15L386.85 246a14 14 0 0 1 4.15 10c0 74.44-60.56 135-135 135z" fill="#00baff" data-original="#000000" class=""></path></g></g></g></svg>